<?xml version="1.0" encoding="utf-8"?>
<!-- Generator: Adobe Illustrator 25.0.0, SVG Export Plug-In . SVG Version: 6.00 Build 0)  -->
<svg version="1.1" id="Camada_1" xmlns="http://www.w3.org/2000/svg" xmlns:xlink="http://www.w3.org/1999/xlink" x="0px" y="0px"
	 viewBox="0 0 510.24 510.24" style="enable-background:new 0 0 510.24 510.24;" xml:space="preserve">
<style type="text/css">
	.st0{display:none;fill:#FFFFFF;}
	.st1{fill:#ED6F4D;}
	.st2{fill:#3B3C40;}
	.st3{fill:#EE6F4E;}
</style>
<g>
	<path class="st0" d="M510.53,255.62c0,83.78-0.02,167.56,0.09,251.34c0,3.3-0.5,4.15-4.02,4.14
		c-167.91-0.12-335.82-0.12-503.72,0.01c-3.79,0-4.25-1.02-4.25-4.42c0.09-167.73,0.09-335.45,0-503.18c0-3.45,0.52-4.4,4.27-4.4
		c167.74,0.12,335.48,0.12,503.22,0c3.9,0,4.51,1.05,4.5,4.66C510.5,87.73,510.53,171.68,510.53,255.62z"/>
	<path class="st1" d="M118.43,287.38c0.79-75.47,60.67-135.39,135.43-135.51c75-0.13,135.05,59.73,135.93,135.51
		c-2.61,2.56-5.94,1.74-9,1.75c-49.54,0.06-99.09,0.04-148.63,0.04c-35.08,0-70.16,0.02-105.24-0.04
		C124.03,289.12,120.87,289.85,118.43,287.38z"/>
	<path class="st2" d="M118.43,287.38c1.16,0.05,2.32,0.15,3.48,0.15c88.14,0.01,176.27,0.01,264.41,0c1.16,0,2.32-0.1,3.48-0.15
		c6.66,0,13.32,0,19.98,0c1.67-1.38,3.69-1.34,5.67-1.35c16.05-0.03,32.11-0.13,48.16,0.04c8.38,0.09,12.88,3.58,13.99,10.35
		c-0.11,10.97-4.19,15.06-15.08,15.06c-138.94,0-277.88,0-416.83,0c-10.88,0-14.97-4.1-15.08-15.06c1.06-6.47,5.41-10.07,13-10.32
		c8.93-0.29,17.87-0.07,26.81-0.09c7.28-0.01,14.57-0.03,21.85,0.01c2.14,0.01,4.34-0.14,6.17,1.35
		C105.11,287.38,111.77,287.38,118.43,287.38z"/>
	<path class="st3" d="M266.09,371.86c0,3.1,0,4.69,0,6.27c0,21.61,0.01,43.22-0.01,64.83c-0.01,8.56-4.79,14.13-12.02,14.09
		c-7.21-0.03-11.91-5.59-11.91-14.2c-0.02-23.1-0.01-46.2-0.01-70.45c-4.8,4.74-8.9,8.9-13.13,12.93c-4.37,4.16-9.38,5-14.14,2.58
		c-6.65-3.38-9.12-12.38-3.98-17.77c13.54-14.19,27.59-27.88,41.41-41.81c1.38-1.39,2.4-1.27,3.72,0.06
		c13.7,13.8,27.56,27.45,41.09,41.42c4.39,4.54,3.7,11.34-0.68,15.77c-4.52,4.57-11.23,4.92-16.19,0.65
		c-2.39-2.05-4.55-4.37-6.77-6.63C271.3,377.41,269.2,375.14,266.09,371.86z"/>
	<path class="st2" d="M126.44,359.37c-16.61,0-33.21,0.01-49.82-0.01c-8.43-0.01-14.1-4.91-14.05-12.05
		c0.05-7.13,5.7-11.88,14.22-11.88c33.38-0.01,66.76-0.02,100.14,0.01c6.58,0.01,10.88,2.93,12.67,8.4
		c1.62,4.94-0.04,9.99-4.38,13.22c-2.51,1.87-5.39,2.35-8.46,2.34C159.99,359.34,143.22,359.37,126.44,359.37z"/>
	<path class="st2" d="M381.73,335.43c16.61,0,33.21-0.01,49.82,0.01c8.46,0.01,14.12,4.85,14.11,11.99
		c-0.02,7.14-5.67,11.93-14.16,11.94c-33.21,0.01-66.43,0.02-99.64,0c-8.15,0-13.72-4.77-13.86-11.74
		c-0.14-7.15,5.55-12.17,13.92-12.18C348.51,335.41,365.12,335.43,381.73,335.43z"/>
	<path class="st1" d="M266.08,96.36c0,7.47,0.05,14.94-0.01,22.41c-0.07,7.71-5.05,13.12-11.95,13.13
		c-6.9,0.01-11.93-5.41-11.96-13.11c-0.06-15.27-0.07-30.54,0-45.81c0.04-7.6,5.29-13.02,12.19-12.88
		c6.72,0.14,11.63,5.45,11.71,12.86C266.15,80.75,266.08,88.56,266.08,96.36z"/>
	<path class="st1" d="M147.46,169.16c-0.2,4.89-2.36,8.6-6.88,10.63c-4.87,2.19-9.5,1.49-13.31-2.29
		c-11.44-11.32-22.79-22.74-34.17-34.13c-0.23-0.23-0.44-0.5-0.65-0.76c-3.82-4.84-3.48-11.54,0.8-15.85
		c4.29-4.32,11.35-5.1,15.77-0.84c12.18,11.74,24.05,23.82,35.95,35.85C146.9,163.71,147.61,166.36,147.46,169.16z"/>
	<path class="st1" d="M372.81,180.9c-4.9-0.08-8.66-2.16-10.81-6.6c-2.13-4.4-2.07-9.04,1.35-12.56
		c11.8-12.13,23.73-24.14,35.93-35.87c4.41-4.24,11.51-3.38,15.76,0.97c4.52,4.63,4.72,11.62-0.03,16.57
		c-7.69,8.02-15.66,15.78-23.52,23.65c-3.4,3.4-6.81,6.81-10.23,10.19C378.93,179.56,376.2,180.98,372.81,180.9z"/>
	<path class="st1" d="M98.45,287.38c-17.44,0.05-34.89,0.35-52.32,0.05c-7.35-0.13-12.45,2.35-15.51,9
		c-3.85-3.94-5.24-8.51-2.89-13.66c2.4-5.27,6.82-7.28,12.53-7.24c14.96,0.11,29.93,0,44.89,0.05
		C93.11,275.61,97.22,279.32,98.45,287.38z"/>
	<path class="st1" d="M477.6,296.42c-3.05-6.65-8.16-9.13-15.51-9c-17.43,0.3-34.88,0.01-52.32-0.05c1.22-8.05,5.33-11.77,13.3-11.8
		c14.96-0.05,29.93,0.06,44.89-0.05c5.71-0.04,10.13,1.96,12.53,7.23C482.83,287.9,481.46,292.48,477.6,296.42z"/>
</g>
</svg>
