<?xml version="1.0" encoding="utf-8"?>
<!-- Generator: Adobe Illustrator 25.0.0, SVG Export Plug-In . SVG Version: 6.00 Build 0)  -->
<svg version="1.1" id="Camada_1" xmlns="http://www.w3.org/2000/svg" xmlns:xlink="http://www.w3.org/1999/xlink" x="0px" y="0px"
	 viewBox="0 0 32 32" style="enable-background:new 0 0 32 32;" xml:space="preserve">
<style type="text/css">
	.st0{fill:#C0C0C0;}
	.st1{fill:#808080;}
</style>
<path class="st0" d="M30.7,5.3C30.6,5.1,30.3,5,30,5h-3.3L27,2.1c0-0.3-0.1-0.6-0.3-0.8C26.6,1.1,26.3,1,26,1H6
	C5.7,1,5.4,1.1,5.3,1.3C5.1,1.5,5,1.8,5,2.1L5.3,5H2C1.7,5,1.4,5.1,1.3,5.3C1.1,5.5,1,5.8,1,6.1l0.8,8.2C2,15.8,3.3,17,4.8,17h2.1
	c1.1,2.6,3.3,4.7,6.1,5.5V29h-2c-0.6,0-1,0.4-1,1s0.4,1,1,1h10c0.6,0,1-0.4,1-1s-0.4-1-1-1h-2v-6.5c2.7-0.9,4.9-2.9,6.1-5.5h2.1
	c1.5,0,2.8-1.2,3-2.7L31,6.1C31,5.8,30.9,5.5,30.7,5.3z M4.8,15c-0.5,0-0.9-0.4-1-0.9L3.1,7h2.4l0.7,7.1c0,0.3,0.1,0.6,0.1,0.9
	L4.8,15z M28.2,14.1c-0.1,0.5-0.5,0.9-1,0.9h-1.5c0.1-0.3,0.1-0.6,0.1-0.9L26.5,7h2.4L28.2,14.1z"/>
<path class="st1" d="M29.3,16.1c0.5-0.5,0.8-1.1,0.9-1.8l0.4-4L31,6.1c0-0.1,0-0.2,0-0.3c0-0.2-0.1-0.3-0.2-0.4
	C30.6,5.1,30.3,5,30,5h-3.3L27,2.1c0-0.1,0-0.2,0-0.3c0-0.2-0.1-0.3-0.2-0.4C26.6,1.1,26.3,1,26,1H16v30h5c0.6,0,1-0.4,1-1
	s-0.4-1-1-1h-2v-6.5l0,0c2.7-0.9,4.9-2.9,6.1-5.5h2.1h0.2C28.1,17,28.8,16.6,29.3,16.1z M25.7,15L25.7,15c0.1-0.3,0.1-0.6,0.1-0.9
	l0.1-1.1l0.6-6h2.4l-0.7,7.1c0,0.4-0.3,0.7-0.6,0.8l0,0c-0.1,0-0.2,0.1-0.4,0.1L25.7,15L25.7,15z"/>
</svg>
